<svg xmlns="http://www.w3.org/2000/svg" xmlns:xlink="http://www.w3.org/1999/xlink" fill="none" version="1.1" width="40" height="40" viewBox="0 0 40 40"><defs><clipPath id="master_svg0_2603_27046"><rect x="0" y="0" width="40" height="40" rx="0"/></clipPath></defs><g clip-path="url(#master_svg0_2603_27046)"><g><path d="M22.35669264526367,17.643332421875L23.15669264526367,18.453332421875L23.931692645263674,19.261732421875L24.69669264526367,20.081732421875C30.45999264526367,26.355032421875,33.81669264526367,32.111732421875004,32.374992645263674,33.553332421875C31.708292645263672,34.220032421875004,30.114992645263673,33.860032421875005,27.974992645263672,32.708332421875C22.572692645263672,36.095632421874996,15.619892645263672,35.699932421875005,10.636662645263673,31.721732421875L15.603292645263672,26.755032421875C17.570792645263673,27.281232421875,19.54609264526367,25.935632421875,19.776492645263673,23.912032421875C20.006992645263672,21.888432421875,18.384792645263673,20.133132421875,16.349292645263674,20.203532421875C14.313902645263672,20.274032421875,12.816922645263672,22.137232421875,13.186662645263672,24.140032421875L13.244992645263672,24.398332421875L8.279992645263672,29.365032421875C4.300664645263672,24.381032421875,3.904992645263672,17.426632421875,7.293332645263671,12.023372421874999C6.140002645263672,9.885042421875,5.779997645263672,8.293372421875,6.446662645263672,7.6250424218749995C8.074992645263672,5.998373421875,15.196692645263672,10.483372421875,22.35669264526367,17.641732421875L22.35669264526367,17.643332421875ZM32.96329264526367,7.036702421875C34.36849264526367,8.441132421875,34.240992645263674,10.755192421875,32.68999264526367,11.996702421875C35.36109264526367,16.238832421875,35.740592645263675,21.533732421875,33.70169264526368,26.113332421875C31.719992645263673,22.856732421875,28.58499264526367,19.156732421875,24.71329264526367,15.286732421875L23.81829264526367,14.400042421875C20.27169264526367,10.935042421875,16.891692645263674,8.126702421875,13.888332645263672,6.300042421875C18.468492645263673,4.260566421875,23.764092645263673,4.640031421875,28.006692645263673,7.311702421875C29.247492645263673,5.762646421875,31.558692645263672,5.634418421875,32.96329264526367,7.036702421875Z" fill="#3662EC" fill-opacity="1"/></g></g></svg>