<svg xmlns="http://www.w3.org/2000/svg" xmlns:xlink="http://www.w3.org/1999/xlink" fill="none" version="1.1" width="40" height="40" viewBox="0 0 40 40"><defs><clipPath id="master_svg0_2603_27039"><rect x="0" y="0" width="40" height="40" rx="0"/></clipPath></defs><g clip-path="url(#master_svg0_2603_27039)"><g><rect x="0" y="0" width="40" height="40" rx="0" fill="#FFFFFF" fill-opacity="0"/></g><g><path d="M36.66679609375,20.00001298828125Q36.66679609375,20.40911298828125,36.64679609375,20.81781298828125Q36.62669609375,21.22641298828125,36.58659609375,21.63361298828125Q36.54649609375,22.04081298828125,36.48639609375,22.44551298828125Q36.42639609375,22.85021298828125,36.34659609375,23.25151298828125Q36.26679609375,23.65281298828125,36.16739609375,24.04961298828125Q36.06789609375,24.44651298828125,35.94919609375,24.83801298828125Q35.83039609375,25.22961298828125,35.69259609375,25.61481298828125Q35.55469609375,26.00001298828125,35.39819609375,26.37801298828125Q35.241596093750005,26.75601298828125,35.06659609375,27.12591298828125Q34.89169609375,27.49571298828125,34.69889609375,27.85661298828125Q34.50599609375,28.21741298828125,34.29559609375,28.56831298828125Q34.08529609375,28.91931298828125,33.85799609375,29.25951298828125Q33.630696093750004,29.59971298828125,33.38699609375,29.92831298828125Q33.14319609375,30.25691298828125,32.883696093750004,30.57321298828125Q32.62409609375,30.88951298828125,32.34929609375,31.19261298828125Q32.07459609375,31.49581298828125,31.78529609375,31.78511298828125Q31.49599609375,32.07441298828125,31.19279609375,32.34911298828125Q30.88969609375,32.62391298828125,30.57339609375,32.883512988281254Q30.25709609375,33.14301298828125,29.92849609375,33.38681298828125Q29.59989609375,33.630512988281254,29.25969609375,33.85781298828125Q28.91949609375,34.08511298828125,28.56849609375,34.29541298828125Q28.21759609375,34.50581298828125,27.85679609375,34.698612988281255Q27.49589609375,34.89151298828125,27.12609609375,35.06651298828125Q26.75619609375,35.241412988281255,26.37819609375,35.39801298828125Q26.00019609375,35.55451298828125,25.61499609375,35.69241298828125Q25.22979609375,35.83021298828125,24.83819609375,35.94901298828125Q24.44669609375,36.06771298828125,24.04979609375,36.16721298828125Q23.65299609375,36.26661298828125,23.25169609375,36.34641298828125Q22.85039609375,36.42621298828125,22.44569609375,36.48621298828125Q22.04099609375,36.54631298828125,21.63379609375,36.58641298828125Q21.22659609375,36.62651298828125,20.81799609375,36.64661298828125Q20.40929609375,36.66661298828125,20.00019609375,36.66661298828125Q19.59099609375,36.66661298828125,19.18239609375,36.64661298828125Q18.77369609375,36.62651298828125,18.36649609375,36.58641298828125Q17.95939609375,36.54631298828125,17.55469609375,36.48621298828125Q17.14989609375,36.42621298828125,16.74869609375,36.34641298828125Q16.34739609375,36.26661298828125,15.95049609375,36.16721298828125Q15.55359609375,36.06771298828125,15.16209609375,35.94901298828125Q14.77059609375,35.83021298828125,14.38529609375,35.69241298828125Q14.00009609375,35.55451298828125,13.62209609375,35.39801298828125Q13.24410609375,35.241412988281255,12.87424609375,35.06641298828125Q12.50437609375,34.89151298828125,12.14354609375,34.69871298828125Q11.78271609375,34.50581298828125,11.43178609375,34.29541298828125Q11.08084609375,34.08511298828125,10.740656093750001,33.85781298828125Q10.400466093750001,33.630512988281254,10.07183609375,33.38681298828125Q9.74321609375,33.14301298828125,9.426936093750001,32.883512988281254Q9.11066609375,32.62391298828125,8.80751609375,32.34911298828125Q8.504356093750001,32.07441298828125,8.21504609375,31.78511298828125Q7.92574609375,31.49581298828125,7.65097609375,31.19261298828125Q7.37621609375,30.88951298828125,7.1166560937500005,30.57321298828125Q6.85709609375,30.25691298828125,6.61336609375,29.92831298828125Q6.36964609375,29.59971298828125,6.14233609375,29.25951298828125Q5.91502609375,28.91931298828125,5.70468609375,28.56831298828125Q5.49434609375,28.21741298828125,5.30147609375,27.85661298828125Q5.10860609375,27.49571298828125,4.93367609375,27.12591298828125Q4.75874609375,26.75601298828125,4.60216609375,26.37801298828125Q4.44559609375,26.00001298828125,4.30776109375,25.61481298828125Q4.16992509375,25.22961298828125,4.05115709375,24.83801298828125Q3.93238909375,24.44651298828125,3.83297509375,24.04961298828125Q3.73356109375,23.65281298828125,3.65374109375,23.25151298828125Q3.57392109375,22.85021298828125,3.51388709375,22.44551298828125Q3.45385409375,22.04081298828125,3.41375059375,21.63361298828125Q3.37364759375,21.22641298828125,3.35357179375,20.81781298828125Q3.33349609375,20.40911298828125,3.33349609375,20.00001298828125Q3.33349609375,19.59081298828125,3.35357179375,19.18221298828125Q3.37364759375,18.77351298828125,3.41375059375,18.36631298828125Q3.45385409375,17.95921298828125,3.51388709375,17.55451298828125Q3.57392109375,17.14971298828125,3.65374109375,16.74851298828125Q3.73356109375,16.34721298828125,3.83297509375,15.95031298828125Q3.93238909375,15.55341298828125,4.05115709375,15.16191298828125Q4.16992509375,14.77041298828125,4.30776109375,14.38511298828125Q4.44559609375,13.99991298828125,4.60216609375,13.62191298828125Q4.75874609375,13.24392298828125,4.93367609375,12.87406298828125Q5.10860609375,12.50419298828125,5.30147609375,12.14336298828125Q5.49434609375,11.78253298828125,5.70468609375,11.43160298828125Q5.91502609375,11.08066298828125,6.14233609375,10.740472988281251Q6.36964609375,10.400282988281251,6.61336609375,10.07165298828125Q6.85709609375,9.74303298828125,7.1166560937500005,9.426752988281251Q7.37621609375,9.11048298828125,7.65097609375,8.80733298828125Q7.92574609375,8.504172988281251,8.21504609375,8.21486298828125Q8.504356093750001,7.92556298828125,8.80751609375,7.65079298828125Q9.11066609375,7.37603298828125,9.426936093750001,7.1164729882812505Q9.74321609375,6.85691298828125,10.07183609375,6.61318298828125Q10.400466093750001,6.36946298828125,10.740656093750001,6.14215298828125Q11.08084609375,5.91484298828125,11.43178609375,5.70450298828125Q11.78271609375,5.49416298828125,12.14354609375,5.30129298828125Q12.50437609375,5.10842298828125,12.87424609375,4.93349298828125Q13.24410609375,4.75856298828125,13.62209609375,4.60198298828125Q14.00009609375,4.44541298828125,14.38529609375,4.30757798828125Q14.77059609375,4.16974198828125,15.16209609375,4.05097398828125Q15.55359609375,3.93220598828125,15.95049609375,3.83279198828125Q16.34739609375,3.73337798828125,16.74869609375,3.65355798828125Q17.14989609375,3.57373798828125,17.55469609375,3.51370398828125Q17.95939609375,3.45367098828125,18.36649609375,3.41356748828125Q18.77369609375,3.37346448828125,19.18239609375,3.35338868828125Q19.59099609375,3.33331298828125,20.00019609375,3.33331298828125Q20.40929609375,3.33331298828125,20.81799609375,3.35338868828125Q21.22659609375,3.37346448828125,21.63379609375,3.41356748828125Q22.04099609375,3.45367098828125,22.44569609375,3.51370398828125Q22.85039609375,3.57373798828125,23.25169609375,3.65355798828125Q23.65299609375,3.73337798828125,24.04979609375,3.83279198828125Q24.44669609375,3.93220598828125,24.83819609375,4.05097398828125Q25.22979609375,4.16974198828125,25.61499609375,4.30757798828125Q26.00019609375,4.44541298828125,26.37819609375,4.60198298828125Q26.75619609375,4.75856298828125,27.12609609375,4.93349298828125Q27.49589609375,5.10842298828125,27.85679609375,5.30129298828125Q28.21759609375,5.49416298828125,28.56849609375,5.70450298828125Q28.91949609375,5.91484298828125,29.25969609375,6.14215298828125Q29.59989609375,6.36946298828125,29.92849609375,6.61318298828125Q30.25709609375,6.85691298828125,30.57339609375,7.1164729882812505Q30.88969609375,7.37603298828125,31.19279609375,7.65079298828125Q31.49599609375,7.92556298828125,31.78529609375,8.21486298828125Q32.07459609375,8.504172988281251,32.34929609375,8.80733298828125Q32.62409609375,9.11048298828125,32.883696093750004,9.426752988281251Q33.14319609375,9.74303298828125,33.38699609375,10.07165298828125Q33.630696093750004,10.400282988281251,33.85799609375,10.740472988281251Q34.08529609375,11.08066298828125,34.29559609375,11.43160298828125Q34.50599609375,11.78253298828125,34.698796093750005,12.14336298828125Q34.89169609375,12.50419298828125,35.06669609375,12.87406298828125Q35.241596093750005,13.24392298828125,35.39819609375,13.62191298828125Q35.55469609375,13.99991298828125,35.69259609375,14.38511298828125Q35.83039609375,14.77041298828125,35.94919609375,15.16191298828125Q36.06789609375,15.55341298828125,36.16739609375,15.95031298828125Q36.26679609375,16.34721298828125,36.34659609375,16.74851298828125Q36.42639609375,17.14971298828125,36.48639609375,17.55451298828125Q36.54649609375,17.95921298828125,36.58659609375,18.36631298828125Q36.62669609375,18.77351298828125,36.64679609375,19.18221298828125Q36.66679609375,19.59081298828125,36.66679609375,20.00001298828125Z" fill="#FA5151" fill-opacity="1"/><path d="M3.72223909375,13.12300298828125Q2.33349609375,16.40641298828125,2.33349609375,20.00001298828125Q2.33349609375,23.59361298828125,3.72224009375,26.87691298828125Q5.0632860937499995,30.04751298828125,7.50794609375,32.49221298828125Q9.95257609375,34.93681298828125,13.12318609375,36.27791298828125Q16.40649609375,37.66661298828125,20.00019609375,37.66661298828125Q23.59379609375,37.66661298828125,26.87709609375,36.27791298828125Q30.04769609375,34.93681298828125,32.49239609375,32.49221298828125Q34.93699609375,30.04751298828125,36.27809609375,26.87691298828125Q37.66679609375,23.59361298828125,37.66679609375,20.00001298828125Q37.66679609375,16.40631298828125,36.27809609375,13.12300298828125Q34.93699609375,9.95240298828125,32.49239609375,7.50775298828125Q30.04769609375,5.0631029882812495,26.87709609375,3.72205598828125Q23.59379609375,2.33331298828125,20.00019609375,2.33331298828125Q16.40659609375,2.33331298828125,13.12318609375,3.72205698828125Q9.95259609375,5.0631029882812495,7.50794609375,7.50776298828125Q5.0632860937499995,9.95241298828125,3.72223909375,13.12300298828125ZM5.5642460937500005,26.09781298828125Q4.33349609375,23.18801298828125,4.33349609375,20.00001298828125Q4.33349409375,16.81191298828125,5.5642460937500005,13.90211298828125Q6.753336093750001,11.090792988281251,8.92215609375,8.92197298828125Q11.09096609375,6.753152988281251,13.90229609375,5.5640629882812505Q16.81209609375,4.33331298828125,20.00019609375,4.33331098828125Q23.18819609375,4.33331098828125,26.09799609375,5.5640629882812505Q28.90929609375,6.753152988281251,31.07819609375,8.92197298828125Q33.24699609375,11.090792988281251,34.436096093749995,13.90211298828125Q35.66679609375,16.81191298828125,35.66679609375,20.00001298828125Q35.66679609375,23.18801298828125,34.436096093749995,26.09781298828125Q33.24699609375,28.90921298828125,31.07819609375,31.07801298828125Q28.90929609375,33.24681298828125,26.09799609375,34.435912988281245Q23.18819609375,35.66661298828125,20.00019609375,35.66661298828125Q16.81209609375,35.66661298828125,13.90229609375,34.435912988281245Q11.09096609375,33.24681298828125,8.92215609375,31.07801298828125Q6.753336093750001,28.90911298828125,5.5642460937500005,26.09781298828125Z" fill-rule="evenodd" fill="#FA5151" fill-opacity="1"/></g><g><path d="M22.5,12.5Q22.5,12.62282,22.48796,12.74504Q22.475920000000002,12.86727,22.45196,12.987729999999999Q22.428,13.10818,22.39235,13.22571Q22.3567,13.34324,22.3097,13.456710000000001Q22.2627,13.57018,22.2048,13.67849Q22.14691,13.78681,22.07867,13.88893Q22.01044,13.99104,21.93253,14.08598Q21.85461,14.18092,21.76777,14.267769999999999Q21.68092,14.354610000000001,21.58598,14.43253Q21.491039999999998,14.51044,21.388930000000002,14.578669999999999Q21.28681,14.64691,21.17849,14.704799999999999Q21.07018,14.762699999999999,20.95671,14.8097Q20.84324,14.8567,20.72571,14.89235Q20.60818,14.928,20.48773,14.95196Q20.36727,14.97592,20.24504,14.987960000000001Q20.12282,15,20,15Q19.87718,15,19.75496,14.987960000000001Q19.63273,14.97592,19.51227,14.95196Q19.39182,14.928,19.27429,14.89235Q19.15676,14.8567,19.04329,14.8097Q18.92982,14.762699999999999,18.82151,14.704799999999999Q18.71319,14.64691,18.61107,14.578669999999999Q18.508960000000002,14.51044,18.414017,14.43253Q18.319078,14.354610000000001,18.232233,14.267769999999999Q18.145388,14.18092,18.067474,14.08598Q17.98956,13.99104,17.921326,13.88893Q17.853092,13.78681,17.795197,13.67849Q17.737301,13.57018,17.690301,13.456710000000001Q17.643301,13.34324,17.607649,13.22571Q17.5719972,13.10818,17.5480368,12.987729999999999Q17.5240764,12.86727,17.5120382,12.74504Q17.5,12.62282,17.5,12.5Q17.5,12.37718,17.5120382,12.25496Q17.5240764,12.13273,17.5480368,12.012270000000001Q17.5719972,11.89182,17.607649,11.77429Q17.643301,11.65676,17.690301,11.54329Q17.737301,11.42982,17.795197,11.32151Q17.853092,11.21319,17.921326,11.11107Q17.98956,11.00896,18.067474,10.914017Q18.145388,10.819078,18.232233,10.732233Q18.319078,10.645388,18.414017,10.567474Q18.508960000000002,10.48956,18.61107,10.421326Q18.71319,10.353092,18.82151,10.295197Q18.92982,10.237301,19.04329,10.190301Q19.15676,10.143301,19.27429,10.107649Q19.39182,10.0719972,19.51227,10.0480368Q19.63273,10.0240764,19.75496,10.0120382Q19.87718,10,20,10Q20.12282,10,20.24504,10.0120382Q20.36727,10.0240764,20.48773,10.0480368Q20.60818,10.0719972,20.72571,10.107649Q20.84324,10.143301,20.95671,10.190301Q21.07018,10.237301,21.17849,10.295197Q21.28681,10.353092,21.388930000000002,10.421326Q21.491039999999998,10.48956,21.58598,10.567474Q21.68092,10.645388,21.76777,10.732233Q21.85461,10.819078,21.93253,10.914017Q22.01044,11.00896,22.07867,11.11107Q22.14691,11.21319,22.2048,11.32151Q22.2627,11.42982,22.3097,11.54329Q22.3567,11.65676,22.39235,11.77429Q22.428,11.89182,22.45196,12.012270000000001Q22.475920000000002,12.13273,22.48796,12.25496Q22.5,12.37718,22.5,12.5Z" fill="#FFFFFF" fill-opacity="1"/><path d="M17.525112,10.0251119Q16.5,11.05022,16.5,12.5Q16.5,13.94978,17.5251118,14.97489Q18.55022,16,20,16Q21.44978,16,22.474890000000002,14.97489Q23.5,13.94978,23.5,12.5Q23.5,11.05022,22.474890000000002,10.0251119Q21.44978,9,20,9Q18.55022,9,17.525112,10.0251119ZM18.939329999999998,13.56067Q18.5,13.12135,18.5,12.5Q18.5,11.87865,18.939329999999998,11.43933Q19.37865,11,20,11Q20.62135,11,21.060670000000002,11.43933Q21.5,11.87865,21.5,12.5Q21.5,13.12135,21.060670000000002,13.56067Q20.62135,14,20,14Q19.37865,14,18.939329999999998,13.56067Z" fill-rule="evenodd" fill="#FFFFFF" fill-opacity="1"/></g><g><path d="M22.5,27.5Q22.5,27.62282,22.48796,27.74504Q22.475920000000002,27.86727,22.45196,27.98773Q22.428,28.10818,22.39235,28.22571Q22.3567,28.34324,22.3097,28.45671Q22.2627,28.57018,22.2048,28.67849Q22.14691,28.78681,22.07867,28.888930000000002Q22.01044,28.991039999999998,21.93253,29.08598Q21.85461,29.18092,21.76777,29.26777Q21.68092,29.35461,21.58598,29.43253Q21.491039999999998,29.51044,21.388930000000002,29.57867Q21.28681,29.64691,21.17849,29.7048Q21.07018,29.7627,20.95671,29.8097Q20.84324,29.8567,20.72571,29.89235Q20.60818,29.928,20.48773,29.95196Q20.36727,29.975920000000002,20.24504,29.98796Q20.12282,30,20,30Q19.87718,30,19.75496,29.98796Q19.63273,29.975920000000002,19.51227,29.95196Q19.39182,29.928,19.27429,29.89235Q19.15676,29.8567,19.04329,29.8097Q18.92982,29.7627,18.82151,29.7048Q18.71319,29.64691,18.61107,29.57867Q18.508960000000002,29.51044,18.414017,29.43253Q18.319078,29.35461,18.232233,29.26777Q18.145388,29.18092,18.067474,29.08598Q17.98956,28.991039999999998,17.921326,28.888930000000002Q17.853092,28.78681,17.795197,28.67849Q17.737301,28.57018,17.690301,28.45671Q17.643301,28.34324,17.607649,28.22571Q17.5719972,28.10818,17.5480368,27.98773Q17.5240764,27.86727,17.5120382,27.74504Q17.5,27.62282,17.5,27.5Q17.5,27.37718,17.5120382,27.25496Q17.5240764,27.13273,17.5480368,27.01227Q17.5719972,26.89182,17.607649,26.77429Q17.643301,26.65676,17.690301,26.54329Q17.737301,26.42982,17.795197,26.32151Q17.853092,26.21319,17.921326,26.11107Q17.98956,26.008960000000002,18.067474,25.914017Q18.145388,25.819078,18.232233,25.732233Q18.319078,25.645388,18.414017,25.567474Q18.508960000000002,25.48956,18.61107,25.421326Q18.71319,25.353092,18.82151,25.295197Q18.92982,25.237301,19.04329,25.190301Q19.15676,25.143301,19.27429,25.107649Q19.39182,25.0719972,19.51227,25.0480368Q19.63273,25.0240764,19.75496,25.0120382Q19.87718,25,20,25Q20.12282,25,20.24504,25.0120382Q20.36727,25.0240764,20.48773,25.0480368Q20.60818,25.0719972,20.72571,25.107649Q20.84324,25.143301,20.95671,25.190301Q21.07018,25.237301,21.17849,25.295197Q21.28681,25.353092,21.388930000000002,25.421326Q21.491039999999998,25.48956,21.58598,25.567474Q21.68092,25.645388,21.76777,25.732233Q21.85461,25.819078,21.93253,25.914017Q22.01044,26.008960000000002,22.07867,26.11107Q22.14691,26.21319,22.2048,26.32151Q22.2627,26.42982,22.3097,26.54329Q22.3567,26.65676,22.39235,26.77429Q22.428,26.89182,22.45196,27.01227Q22.475920000000002,27.13273,22.48796,27.25496Q22.5,27.37718,22.5,27.5Z" fill="#FFFFFF" fill-opacity="1"/><path d="M17.525112,25.0251119Q16.5,26.05022,16.5,27.5Q16.5,28.94978,17.5251118,29.974890000000002Q18.55022,31,20,31Q21.44978,31,22.474890000000002,29.974890000000002Q23.5,28.94978,23.5,27.5Q23.5,26.05022,22.474890000000002,25.0251119Q21.44978,24,20,24Q18.55022,24,17.525112,25.0251119ZM18.939329999999998,28.560670000000002Q18.5,28.12135,18.5,27.5Q18.5,26.87865,18.939329999999998,26.439329999999998Q19.37865,26,20,26Q20.62135,26,21.060670000000002,26.439329999999998Q21.5,26.87865,21.5,27.5Q21.5,28.12135,21.060670000000002,28.560670000000002Q20.62135,29,20,29Q19.37865,29,18.939329999999998,28.560670000000002Z" fill-rule="evenodd" fill="#FFFFFF" fill-opacity="1"/></g><g><path d="M15,20Q15,20.12282,14.987960000000001,20.24504Q14.97592,20.36727,14.95196,20.48773Q14.928,20.60818,14.89235,20.72571Q14.8567,20.84324,14.8097,20.95671Q14.762699999999999,21.07018,14.704799999999999,21.17849Q14.64691,21.28681,14.578669999999999,21.388930000000002Q14.51044,21.491039999999998,14.43253,21.58598Q14.354610000000001,21.68092,14.267769999999999,21.76777Q14.18092,21.85461,14.08598,21.93253Q13.99104,22.01044,13.88893,22.07867Q13.78681,22.14691,13.67849,22.2048Q13.57018,22.2627,13.456710000000001,22.3097Q13.34324,22.3567,13.22571,22.39235Q13.10818,22.428,12.987729999999999,22.45196Q12.86727,22.475920000000002,12.74504,22.48796Q12.62282,22.5,12.5,22.5Q12.37718,22.5,12.25496,22.48796Q12.13273,22.475920000000002,12.012270000000001,22.45196Q11.89182,22.428,11.77429,22.39235Q11.65676,22.3567,11.54329,22.3097Q11.42982,22.2627,11.32151,22.2048Q11.21319,22.14691,11.11107,22.07867Q11.00896,22.01044,10.914017,21.93253Q10.819078,21.85461,10.732233,21.76777Q10.645388,21.68092,10.567474,21.58598Q10.48956,21.491039999999998,10.421326,21.388930000000002Q10.353092,21.28681,10.295197,21.17849Q10.237301,21.07018,10.190301,20.95671Q10.143301,20.84324,10.107649,20.72571Q10.0719972,20.60818,10.0480368,20.48773Q10.0240764,20.36727,10.0120382,20.24504Q10,20.12282,10,20Q10,19.87718,10.0120382,19.75496Q10.0240764,19.63273,10.0480368,19.51227Q10.0719972,19.39182,10.107649,19.27429Q10.143301,19.15676,10.190301,19.04329Q10.237301,18.92982,10.295197,18.82151Q10.353092,18.71319,10.421326,18.61107Q10.48956,18.508960000000002,10.567474,18.414017Q10.645388,18.319078,10.732233,18.232233Q10.819078,18.145388,10.914017,18.067474Q11.00896,17.98956,11.11107,17.921326Q11.21319,17.853092,11.32151,17.795197Q11.42982,17.737301,11.54329,17.690301Q11.65676,17.643301,11.77429,17.607649Q11.89182,17.5719972,12.012270000000001,17.5480368Q12.13273,17.5240764,12.25496,17.5120382Q12.37718,17.5,12.5,17.5Q12.62282,17.5,12.74504,17.5120382Q12.86727,17.5240764,12.987729999999999,17.5480368Q13.10818,17.5719972,13.22571,17.607649Q13.34324,17.643301,13.456710000000001,17.690301Q13.57018,17.737301,13.67849,17.795197Q13.78681,17.853092,13.88893,17.921326Q13.99104,17.98956,14.08598,18.067474Q14.18092,18.145388,14.267769999999999,18.232233Q14.354610000000001,18.319078,14.43253,18.414017Q14.51044,18.508960000000002,14.578669999999999,18.61107Q14.64691,18.71319,14.704799999999999,18.82151Q14.762699999999999,18.92982,14.8097,19.04329Q14.8567,19.15676,14.89235,19.27429Q14.928,19.39182,14.95196,19.51227Q14.97592,19.63273,14.987960000000001,19.75496Q15,19.87718,15,20Z" fill="#FFFFFF" fill-opacity="1"/><path d="M10.025112,17.5251119Q9,18.55022,9,20Q9,21.44978,10.0251118,22.474890000000002Q11.05022,23.5,12.5,23.5Q13.94978,23.5,14.97489,22.474890000000002Q16,21.44978,16,20Q16,18.55022,14.97489,17.5251119Q13.94978,16.5,12.5,16.5Q11.05022,16.5,10.025112,17.5251119ZM11.43933,21.060670000000002Q11,20.62135,11,20Q11,19.37865,11.43933,18.939329999999998Q11.87865,18.5,12.5,18.5Q13.12135,18.5,13.56067,18.939329999999998Q14,19.37865,14,20Q14,20.62135,13.56067,21.060670000000002Q13.12135,21.5,12.5,21.5Q11.87865,21.5,11.43933,21.060670000000002Z" fill-rule="evenodd" fill="#FFFFFF" fill-opacity="1"/></g><g><path d="M30,20Q30,20.12282,29.98796,20.24504Q29.975920000000002,20.36727,29.95196,20.48773Q29.928,20.60818,29.89235,20.72571Q29.8567,20.84324,29.8097,20.95671Q29.7627,21.07018,29.7048,21.17849Q29.64691,21.28681,29.57867,21.388930000000002Q29.51044,21.491039999999998,29.43253,21.58598Q29.35461,21.68092,29.26777,21.76777Q29.18092,21.85461,29.08598,21.93253Q28.991039999999998,22.01044,28.888930000000002,22.07867Q28.78681,22.14691,28.67849,22.2048Q28.57018,22.2627,28.45671,22.3097Q28.34324,22.3567,28.22571,22.39235Q28.10818,22.428,27.98773,22.45196Q27.86727,22.475920000000002,27.74504,22.48796Q27.62282,22.5,27.5,22.5Q27.37718,22.5,27.25496,22.48796Q27.13273,22.475920000000002,27.01227,22.45196Q26.89182,22.428,26.77429,22.39235Q26.65676,22.3567,26.54329,22.3097Q26.42982,22.2627,26.32151,22.2048Q26.21319,22.14691,26.11107,22.07867Q26.008960000000002,22.01044,25.914017,21.93253Q25.819078,21.85461,25.732233,21.76777Q25.645388,21.68092,25.567474,21.58598Q25.48956,21.491039999999998,25.421326,21.388930000000002Q25.353092,21.28681,25.295197,21.17849Q25.237301,21.07018,25.190301,20.95671Q25.143301,20.84324,25.107649,20.72571Q25.0719972,20.60818,25.0480368,20.48773Q25.0240764,20.36727,25.0120382,20.24504Q25,20.12282,25,20Q25,19.87718,25.0120382,19.75496Q25.0240764,19.63273,25.0480368,19.51227Q25.0719972,19.39182,25.107649,19.27429Q25.143301,19.15676,25.190301,19.04329Q25.237301,18.92982,25.295197,18.82151Q25.353092,18.71319,25.421326,18.61107Q25.48956,18.508960000000002,25.567474,18.414017Q25.645388,18.319078,25.732233,18.232233Q25.819078,18.145388,25.914017,18.067474Q26.008960000000002,17.98956,26.11107,17.921326Q26.21319,17.853092,26.32151,17.795197Q26.42982,17.737301,26.54329,17.690301Q26.65676,17.643301,26.77429,17.607649Q26.89182,17.5719972,27.01227,17.5480368Q27.13273,17.5240764,27.25496,17.5120382Q27.37718,17.5,27.5,17.5Q27.62282,17.5,27.74504,17.5120382Q27.86727,17.5240764,27.98773,17.5480368Q28.10818,17.5719972,28.22571,17.607649Q28.34324,17.643301,28.45671,17.690301Q28.57018,17.737301,28.67849,17.795197Q28.78681,17.853092,28.888930000000002,17.921326Q28.991039999999998,17.98956,29.08598,18.067474Q29.18092,18.145388,29.26777,18.232233Q29.35461,18.319078,29.43253,18.414017Q29.51044,18.508960000000002,29.57867,18.61107Q29.64691,18.71319,29.7048,18.82151Q29.7627,18.92982,29.8097,19.04329Q29.8567,19.15676,29.89235,19.27429Q29.928,19.39182,29.95196,19.51227Q29.975920000000002,19.63273,29.98796,19.75496Q30,19.87718,30,20Z" fill="#FFFFFF" fill-opacity="1"/><path d="M25.025112,17.5251119Q24,18.55022,24,20Q24,21.44978,25.0251118,22.474890000000002Q26.05022,23.5,27.5,23.5Q28.94978,23.5,29.974890000000002,22.474890000000002Q31,21.44978,31,20Q31,18.55022,29.974890000000002,17.5251119Q28.94978,16.5,27.5,16.5Q26.05022,16.5,25.025112,17.5251119ZM26.439329999999998,21.060670000000002Q26,20.62135,26,20Q26,19.37865,26.439329999999998,18.939329999999998Q26.87865,18.5,27.5,18.5Q28.12135,18.5,28.560670000000002,18.939329999999998Q29,19.37865,29,20Q29,20.62135,28.560670000000002,21.060670000000002Q28.12135,21.5,27.5,21.5Q26.87865,21.5,26.439329999999998,21.060670000000002Z" fill-rule="evenodd" fill="#FFFFFF" fill-opacity="1"/></g></g></svg>