<svg xmlns="http://www.w3.org/2000/svg" xmlns:xlink="http://www.w3.org/1999/xlink" fill="none" version="1.1" width="40" height="40" viewBox="0 0 40 40"><defs><clipPath id="master_svg0_2603_27023"><rect x="0" y="0" width="40" height="40" rx="0"/></clipPath></defs><g clip-path="url(#master_svg0_2603_27023)"><g><rect x="4.1669921875" y="10" width="31.666667938232422" height="23.33333396911621" rx="2" fill="#00B578" fill-opacity="1"/><rect x="4.1669921875" y="10" width="31.666667938232422" height="23.33333396911621" rx="2" fill-opacity="0" stroke-opacity="1" stroke="#00B578" fill="none" stroke-width="2"/></g><g><path d="M20.485643,10.87416L29.48564,5.874157Q29.65952,5.777557,29.7832,5.6217690000000005Q29.90688,5.46598,29.96152,5.2747209999999995Q30,5.140055,30,4.999999999999999L29.99989,4.9849757Q29.99611,4.733879,29.87416,4.514357Q29.8092,4.397438,29.7158,4.301698Q29.6224,4.205959,29.50713,4.13813Q29.391849999999998,4.070301,29.2628,4.035151Q29.13375,4,29,4Q28.98505,4,28.97011,4.000447Q28.726979999999998,4.007718,28.51436,4.125843L19.514357,9.12584Q19.397437,9.1908,19.301698000000002,9.2842Q19.205958,9.377600000000001,19.138129,9.49287Q19.0703,9.60815,19.03515,9.7372Q19,9.86625,19,10Q19,10.014949999999999,19.000447,10.02989Q19.007718,10.273019999999999,19.125843,10.48564Q19.222443,10.65952,19.378232,10.7832Q19.53402,10.906880000000001,19.725279,10.96152Q19.859945,11,20,11L20.0150247,10.99989Q20.266121,10.99611,20.485643,10.87416Z" fill-rule="evenodd" fill="#00B578" fill-opacity="1"/></g><g><path d="M20.52944,9.15165L12.529999,4.1520019999999995Q12.286796,4,12.0000000260969,4Q11.9897858,4,11.9795738,4.000209Q11.85499,4.002754,11.73484,4.035796Q11.61469,4.068837,11.506323,4.130354Q11.397957,4.191871,11.308001,4.278102Q11.218045,4.364332,11.152002,4.470001Q11,4.713204,11,5Q11,5.0102142,11.000209,5.0204262Q11.002754,5.14501,11.035796,5.26516Q11.068837,5.38531,11.130354,5.493677Q11.191871,5.602043,11.278102,5.691999Q11.364332,5.781955,11.470001,5.8479980000000005L19.46962,10.847760000000001L19.47,10.847999999999999Q19.7132,11,20,11Q20.01021,11,20.020429999999998,10.99979Q20.14501,10.997250000000001,20.26516,10.9642Q20.38531,10.93116,20.493679999999998,10.86965Q20.602040000000002,10.80813,20.692,10.7219Q20.781950000000002,10.635670000000001,20.848,10.530000000000001Q21,10.2868,21,10Q21,9.98979,20.99979,9.979569999999999Q20.99725,9.85499,20.964199999999998,9.73484Q20.93116,9.61469,20.86965,9.506319999999999Q20.80813,9.397960000000001,20.721899999999998,9.308Q20.635669999999998,9.21804,20.53,9.152000000000001L20.52944,9.15165Z" fill-rule="evenodd" fill="#00B578" fill-opacity="1"/></g><g><path d="M27.6669921875,17L27.6669921875,22Q27.6669921875,22.07369,27.6742121875,22.14703Q27.6814421875,22.22036,27.6958121875,22.29263Q27.7101921875,22.364910000000002,27.7315821875,22.43543Q27.7529721875,22.50594,27.7811721875,22.57402Q27.8093721875,22.64211,27.8441121875,22.70709Q27.8788521875,22.77208,27.9197921875,22.83335Q27.9607321875,22.89463,28.0074721875,22.95159Q28.0542221875,23.00855,28.1063321875,23.06066Q28.1584421875,23.11277,28.2154021875,23.15951Q28.2723651875,23.20626,28.3336371875,23.2472Q28.3949081875,23.28814,28.4598971875,23.322879999999998Q28.5248861875,23.35762,28.5929671875,23.38582Q28.6610481875,23.41402,28.7315651875,23.43541Q28.8020821875,23.4568,28.8743571875,23.47118Q28.9466311875,23.48555,29.0199661875,23.49278Q29.0933018875,23.5,29.1669921875,23.5Q29.2406824875,23.5,29.3140181875,23.49278Q29.3873531875,23.48555,29.4596271875,23.47118Q29.5319021875,23.4568,29.6024191875,23.43541Q29.6729361875,23.41402,29.7410171875,23.38582Q29.8090981875,23.35762,29.8740871875,23.322879999999998Q29.9390761875,23.28814,30.0003471875,23.2472Q30.0616191875,23.20626,30.1185821875,23.15951Q30.1755421875,23.11277,30.2276521875,23.06066Q30.2797621875,23.00855,30.3265121875,22.95159Q30.3732521875,22.89463,30.4141921875,22.83335Q30.4551321875,22.77208,30.4898721875,22.70709Q30.5246121875,22.64211,30.5528121875,22.57402Q30.5810121875,22.50594,30.6024021875,22.43543Q30.6237921875,22.364910000000002,30.6381721875,22.29263Q30.6525421875,22.22036,30.6597721875,22.14703Q30.6669921875,22.07369,30.6669921875,22L30.6669921875,17Q30.6669921875,16.9263097,30.6597721875,16.852974Q30.6525421875,16.779639,30.6381721875,16.707365Q30.6237921875,16.63509,30.6024021875,16.564573Q30.5810121875,16.494056,30.5528121875,16.425975Q30.5246121875,16.357894,30.4898721875,16.292905Q30.4551321875,16.227916,30.4141921875,16.166645Q30.3732521875,16.105373,30.3265121875,16.04841Q30.2797621875,15.99145,30.2276521875,15.93934Q30.1755421875,15.88723,30.1185821875,15.84048Q30.0616191875,15.79374,30.0003471875,15.7528Q29.9390761875,15.71186,29.8740871875,15.67712Q29.8090981875,15.64238,29.7410171875,15.61418Q29.6729361875,15.58598,29.6024191875,15.564589999999999Q29.5319021875,15.5432,29.4596271875,15.52882Q29.3873531875,15.51445,29.3140181875,15.50722Q29.2406824875,15.5,29.1669921875,15.5Q29.0933018875,15.5,29.0199661875,15.50722Q28.9466311875,15.51445,28.8743571875,15.52882Q28.8020821875,15.5432,28.7315651875,15.564589999999999Q28.6610481875,15.58598,28.5929671875,15.61418Q28.5248861875,15.64238,28.4598971875,15.67712Q28.3949081875,15.71186,28.3336371875,15.7528Q28.2723651875,15.79374,28.2154021875,15.84048Q28.1584421875,15.88723,28.1063321875,15.93934Q28.0542221875,15.99145,28.0074721875,16.04841Q27.9607321875,16.105373,27.9197921875,16.166645Q27.8788521875,16.227916,27.8441121875,16.292905Q27.8093721875,16.357894,27.7811721875,16.425975Q27.7529721875,16.494056,27.7315821875,16.564573Q27.7101921875,16.63509,27.6958121875,16.707365Q27.6814421875,16.779639,27.6742121875,16.852974Q27.6669921875,16.9263097,27.6669921875,17Z" fill-rule="evenodd" fill="#FFFFFF" fill-opacity="1"/></g><g><rect x="27" y="25.333251953125" width="4" height="4" rx="2" fill="#FFFFFF" fill-opacity="1"/></g></g></svg>