<svg xmlns="http://www.w3.org/2000/svg" xmlns:xlink="http://www.w3.org/1999/xlink" fill="none" version="1.1" width="40" height="40" viewBox="0 0 40 40"><defs><clipPath id="master_svg0_2603_27033"><rect x="0" y="0" width="40" height="40" rx="0"/></clipPath></defs><g clip-path="url(#master_svg0_2603_27033)"><g><rect x="0" y="0" width="40" height="40" rx="0" fill="#FFFFFF" fill-opacity="0"/></g><g><path d="M36.6663078125,19.999951953125Q36.6663078125,20.409051953125,36.6463078125,20.817751953125Q36.6262078125,21.226351953125,36.5861078125,21.633551953125Q36.5460078125,22.040751953125,36.4859078125,22.445451953125Q36.4259078125,22.850151953125,36.3461078125,23.251451953125Q36.2663078125,23.652751953125,36.1669078125,24.049551953125Q36.0674078125,24.446451953125,35.9487078125,24.837951953125Q35.8299078125,25.229551953125,35.6921078125,25.614751953125Q35.5542078125,25.999951953125,35.3977078125,26.377951953125Q35.241107812500005,26.755951953125,35.0661078125,27.125851953125Q34.8912078125,27.495651953125,34.6984078125,27.856551953125Q34.5055078125,28.217351953125,34.2951078125,28.568251953125Q34.0848078125,28.919251953125,33.8575078125,29.259451953125Q33.630207812500004,29.599651953125,33.3865078125,29.928251953125Q33.1427078125,30.256851953125,32.883207812500004,30.573151953125Q32.6236078125,30.889451953125,32.3488078125,31.192551953125Q32.0741078125,31.495751953125,31.7848078125,31.785051953125Q31.4955078125,32.074351953125,31.1923078125,32.349051953125Q30.8892078125,32.623851953125,30.5729078125,32.883451953125004Q30.2566078125,33.142951953125,29.9280078125,33.386751953125Q29.5994078125,33.630451953125004,29.2592078125,33.857751953125Q28.9190078125,34.085051953125,28.5680078125,34.295351953125Q28.2171078125,34.505751953125,27.8563078125,34.698551953125005Q27.4954078125,34.891451953125,27.1256078125,35.066451953125Q26.7557078125,35.241351953125005,26.3777078125,35.397951953125Q25.9997078125,35.554451953125,25.6145078125,35.692351953125Q25.2293078125,35.830151953125,24.8377078125,35.948951953125Q24.4462078125,36.067651953125,24.0493078125,36.167151953125Q23.6525078125,36.266551953125,23.2512078125,36.346351953125Q22.8499078125,36.426151953125,22.4452078125,36.486151953125Q22.0405078125,36.546251953125,21.6333078125,36.586351953125Q21.2261078125,36.626451953125,20.8175078125,36.646551953125Q20.4088078125,36.666551953125,19.9997078125,36.666551953125Q19.5905078125,36.666551953125,19.1819078125,36.646551953125Q18.7732078125,36.626451953125,18.3660078125,36.586351953125Q17.9589078125,36.546251953125,17.5542078125,36.486151953125Q17.1494078125,36.426151953125,16.7482078125,36.346351953125Q16.3469078125,36.266551953125,15.9500078125,36.167151953125Q15.5531078125,36.067651953125,15.1616078125,35.948951953125Q14.7701078125,35.830151953125,14.3848078125,35.692351953125Q13.9996078125,35.554451953125,13.6216078125,35.397951953125Q13.2436178125,35.241351953125005,12.8737578125,35.066351953125Q12.5038878125,34.891451953125,12.1430578125,34.698651953125Q11.7822278125,34.505751953125,11.4312978125,34.295351953125Q11.0803578125,34.085051953125,10.740167812500001,33.857751953125Q10.399977812500001,33.630451953125004,10.0713478125,33.386751953125Q9.7427278125,33.142951953125,9.426447812500001,32.883451953125004Q9.1101778125,32.623851953125,8.8070278125,32.349051953125Q8.503867812500001,32.074351953125,8.2145578125,31.785051953125Q7.9252578125,31.495751953125,7.6504878125,31.192551953125Q7.3757278125,30.889451953125,7.1161678125000005,30.573151953125Q6.8566078125,30.256851953125,6.6128778125,29.928251953125Q6.3691578125,29.599651953125,6.1418478125,29.259451953125Q5.9145378125,28.919251953125,5.7041978125,28.568251953125Q5.4938578125,28.217351953125,5.3009878125,27.856551953125Q5.1081178125,27.495651953125,4.9331878125,27.125851953125Q4.7582578125,26.755951953125,4.6016778125,26.377951953125Q4.4451078125,25.999951953125,4.3072728125,25.614751953125Q4.1694368125,25.229551953125,4.0506688125,24.837951953125Q3.9319008125,24.446451953125,3.8324868125,24.049551953125Q3.7330728125,23.652751953125,3.6532528125,23.251451953125Q3.5734328125,22.850151953125,3.5133988125,22.445451953125Q3.4533658125,22.040751953125,3.4132623125,21.633551953125Q3.3731593125,21.226351953125,3.3530835125,20.817751953125Q3.3330078125,20.409051953125,3.3330078125,19.999951953125Q3.3330078125,19.590751953125,3.3530835125,19.182151953125Q3.3731593125,18.773451953125,3.4132623125,18.366251953125Q3.4533658125,17.959151953125,3.5133988125,17.554451953125Q3.5734328125,17.149651953125,3.6532528125,16.748451953125Q3.7330728125,16.347151953125,3.8324868125,15.950251953125Q3.9319008125,15.553351953125,4.0506688125,15.161851953125Q4.1694368125,14.770351953125,4.3072728125,14.385051953125Q4.4451078125,13.999851953125,4.6016778125,13.621851953125Q4.7582578125,13.243861953125,4.9331878125,12.874001953125Q5.1081178125,12.504131953125,5.3009878125,12.143301953125Q5.4938578125,11.782471953125,5.7041978125,11.431541953125Q5.9145378125,11.080601953125,6.1418478125,10.740411953125001Q6.3691578125,10.400221953125001,6.6128778125,10.071591953125Q6.8566078125,9.742971953125,7.1161678125000005,9.426691953125001Q7.3757278125,9.110421953125,7.6504878125,8.807271953125Q7.9252578125,8.504111953125001,8.2145578125,8.214801953125Q8.503867812500001,7.925501953125,8.8070278125,7.650731953125Q9.1101778125,7.375971953125,9.426447812500001,7.1164119531250005Q9.7427278125,6.856851953125,10.0713478125,6.613121953125Q10.399977812500001,6.369401953125,10.740167812500001,6.142091953125Q11.0803578125,5.914781953125,11.4312978125,5.704441953125Q11.7822278125,5.494101953125,12.1430578125,5.301231953125Q12.5038878125,5.108361953125,12.8737578125,4.933431953125Q13.2436178125,4.758501953125,13.6216078125,4.601921953125Q13.9996078125,4.445351953125,14.3848078125,4.307516953125Q14.7701078125,4.169680953125,15.1616078125,4.050912953125Q15.5531078125,3.932144953125,15.9500078125,3.832730953125Q16.3469078125,3.733316953125,16.7482078125,3.653496953125Q17.1494078125,3.573676953125,17.5542078125,3.513642953125Q17.9589078125,3.453609953125,18.3660078125,3.413506453125Q18.7732078125,3.373403453125,19.1819078125,3.353327653125Q19.5905078125,3.333251953125,19.9997078125,3.333251953125Q20.4088078125,3.333251953125,20.8175078125,3.353327653125Q21.2261078125,3.373403453125,21.6333078125,3.413506453125Q22.0405078125,3.453609953125,22.4452078125,3.513642953125Q22.8499078125,3.573676953125,23.2512078125,3.653496953125Q23.6525078125,3.733316953125,24.0493078125,3.832730953125Q24.4462078125,3.932144953125,24.8377078125,4.050912953125Q25.2293078125,4.169680953125,25.6145078125,4.307516953125Q25.9997078125,4.445351953125,26.3777078125,4.601921953125Q26.7557078125,4.758501953125,27.1256078125,4.933431953125Q27.4954078125,5.108361953125,27.8563078125,5.301231953125Q28.2171078125,5.494101953125,28.5680078125,5.704441953125Q28.9190078125,5.914781953125,29.2592078125,6.142091953125Q29.5994078125,6.369401953125,29.9280078125,6.613121953125Q30.2566078125,6.856851953125,30.5729078125,7.1164119531250005Q30.8892078125,7.375971953125,31.1923078125,7.650731953125Q31.4955078125,7.925501953125,31.7848078125,8.214801953125Q32.0741078125,8.504111953125001,32.3488078125,8.807271953125Q32.6236078125,9.110421953125,32.883207812500004,9.426691953125001Q33.1427078125,9.742971953125,33.3865078125,10.071591953125Q33.630207812500004,10.400221953125001,33.8575078125,10.740411953125001Q34.0848078125,11.080601953125,34.2951078125,11.431541953125Q34.5055078125,11.782471953125,34.698307812500005,12.143301953125Q34.8912078125,12.504131953125,35.0662078125,12.874001953125Q35.241107812500005,13.243861953125,35.3977078125,13.621851953125Q35.5542078125,13.999851953125,35.6921078125,14.385051953125Q35.8299078125,14.770351953125,35.9487078125,15.161851953125Q36.0674078125,15.553351953125,36.1669078125,15.950251953125Q36.2663078125,16.347151953125,36.3461078125,16.748451953125Q36.4259078125,17.149651953125,36.4859078125,17.554451953125Q36.5460078125,17.959151953125,36.5861078125,18.366251953125Q36.6262078125,18.773451953125,36.6463078125,19.182151953125Q36.6663078125,19.590751953125,36.6663078125,19.999951953125Z" fill="#FF8F1F" fill-opacity="1"/><path d="M3.7217508125,13.122941953125Q2.3330078125,16.406351953125,2.3330078125,19.999951953125Q2.3330078125,23.593551953125,3.7217518125,26.876851953125Q5.0627978124999995,30.047451953125,7.5074578125,32.492151953125Q9.9520878125,34.936751953125,13.1226978125,36.277851953125Q16.4060078125,37.666551953125,19.9997078125,37.666551953125Q23.5933078125,37.666551953125,26.8766078125,36.277851953125Q30.0472078125,34.936751953125,32.4919078125,32.492151953125Q34.9365078125,30.047451953125,36.2776078125,26.876851953125Q37.6663078125,23.593551953125,37.6663078125,19.999951953125Q37.6663078125,16.406251953125,36.2776078125,13.122941953125Q34.9365078125,9.952341953125,32.4919078125,7.507691953125Q30.0472078125,5.0630419531249995,26.8766078125,3.721994953125Q23.5933078125,2.333251953125,19.9997078125,2.333251953125Q16.4061078125,2.333251953125,13.1226978125,3.721995953125Q9.9521078125,5.0630419531249995,7.5074578125,7.507701953125Q5.0627978124999995,9.952351953125,3.7217508125,13.122941953125ZM5.5637578125000005,26.097751953125Q4.3330078125,23.187951953125,4.3330078125,19.999951953125Q4.3330058125,16.811851953125,5.5637578125000005,13.902051953125Q6.752847812500001,11.090731953125001,8.9216678125,8.921911953125Q11.0904778125,6.753091953125001,13.9018078125,5.5640019531250005Q16.8116078125,4.333251953125,19.9997078125,4.333249953125Q23.1877078125,4.333249953125,26.0975078125,5.5640019531250005Q28.9088078125,6.753091953125001,31.0777078125,8.921911953125Q33.2465078125,11.090731953125001,34.435607812499995,13.902051953125Q35.6663078125,16.811851953125,35.6663078125,19.999951953125Q35.6663078125,23.187951953125,34.435607812499995,26.097751953125Q33.2465078125,28.909151953125,31.0777078125,31.077951953125Q28.9088078125,33.246751953125,26.0975078125,34.435851953124995Q23.1877078125,35.666551953125,19.9997078125,35.666551953125Q16.8116078125,35.666551953125,13.9018078125,34.435851953124995Q11.0904778125,33.246751953125,8.9216678125,31.077951953125Q6.752847812500001,28.909051953125,5.5637578125000005,26.097751953125Z" fill-rule="evenodd" fill="#FF8F1F" fill-opacity="1"/></g><g><ellipse cx="11.6669921875" cy="20" rx="2.5" ry="2.5" fill="#FFFFFF" fill-opacity="1"/></g><g><ellipse cx="20" cy="20" rx="2.5" ry="2.5" fill="#FFFFFF" fill-opacity="1"/></g><g><ellipse cx="28.3330078125" cy="20" rx="2.5" ry="2.5" fill="#FFFFFF" fill-opacity="1"/></g></g></svg>