<svg xmlns="http://www.w3.org/2000/svg" xmlns:xlink="http://www.w3.org/1999/xlink" fill="none" version="1.1" width="35.333335876464844" height="33.66666793823242" viewBox="0 0 35.333335876464844 33.66666793823242"><g><path d="M17.6655,1L12.5713,11.398L1,13.0759L9.38242,21.2709L7.37867,32.6667L17.6655,27.1827L27.9545,32.6667L25.9655,21.2709L34.3333,13.0759L22.8261,11.398L17.6655,1Z" fill="#07B9B9" fill-opacity="1"/><path d="M23.4889,10.48407L18.5612,0.555436Q18.4728,0.37726099999999996,18.3229,0.24648899999999996Q18.1731,0.11571699999999996,17.9845,0.052257Q17.796,-0.011200000000000099,17.5976,0.0023100000000000342Q17.3991,0.01582399999999995,17.2209,0.10425300000000004Q17.073,0.17765799999999998,16.9566,0.294712Q16.8401,0.411767,16.7675,0.560044L11.9055,10.48409L0.856495,12.0863Q0.759023,12.1004,0.666181,12.1333Q0.573339,12.1662,0.488696,12.2165Q0.40405199999999997,12.2669,0.33086000000000004,12.3328Q0.257667,12.3987,0.19873799999999997,12.4776Q0.13981,12.5565,0.09740899999999997,12.6454Q0.055008999999999975,12.7343,0.03076599999999996,12.8298Q0.0065229999999999455,12.9252,0.0013699999999999823,13.0236Q-0.0037799999999998946,13.1219,0.01034999999999997,13.2194Q0.033977000000000035,13.3824,0.10859200000000002,13.5291Q0.18320599999999998,13.6759,0.300932,13.791L8.306180000000001,21.6172L6.39378,32.4935Q6.35933,32.6894,6.40247,32.8836Q6.44562,33.0777,6.55979,33.2406Q6.67396,33.4035,6.84177,33.5103Q7.00958,33.6171,7.20549,33.6516Q7.37046,33.6806,7.53588,33.6542Q7.70129,33.6279,7.8491,33.5491L17.6655,28.3159L27.4841,33.5491Q27.6597,33.6427,27.8577,33.662Q28.0556,33.6812,28.2459,33.6233Q28.4362,33.5653,28.5898,33.4389Q28.7434,33.3126,28.837,33.137Q28.9156,32.9895,28.942,32.8245Q28.9683,32.659400000000005,28.9396,32.4947L27.0411,21.6173L35.033,13.7904Q35.1034,13.7214,35.159,13.6401Q35.2145,13.5588,35.2532,13.4682Q35.2918,13.3776,35.312,13.2812Q35.3322,13.1848,35.3333,13.0863Q35.3343,12.9879,35.3161,12.8911Q35.2979,12.7943,35.2612,12.7029Q35.2244,12.6115,35.1706,12.5291Q35.1167,12.4466,35.0478,12.3762Q34.9329,12.2589,34.7865,12.1845Q34.6401,12.1101,34.4776,12.0864L23.4889,10.48407ZM17.6713,3.2611L21.9303,11.8426Q21.9842,11.9512,22.0625,12.0438Q22.1408,12.1363,22.239,12.2075Q22.3372,12.2787,22.4495,12.3244Q22.5618,12.37,22.6818,12.3875L32.191199999999995,13.7741L25.2658,20.5565Q25.1789,20.6416,25.1149,20.7451Q25.0509,20.8486,25.0136,20.9644Q24.9763,21.0802,24.9679,21.2016Q24.9595,21.323,24.9804,21.4429L26.6172,30.8207L18.1359,26.3002Q18.0273,26.2423,17.9079,26.2125Q17.7885,26.1827,17.6655,26.1827Q17.5424,26.1827,17.423,26.2125Q17.3036,26.2423,17.1951,26.3002L8.7189,30.819L10.36731,21.4441Q10.38842,21.324,10.38006,21.2023Q10.3717,21.0807,10.33435,20.9646Q10.29699,20.8485,10.23284,20.7448Q10.16868,20.6411,10.08148,20.5559L3.14578,13.7752L12.7148,12.3876Q12.8356,12.3701,12.9486,12.3241Q13.0616,12.2781,13.1602,12.2062Q13.2588,12.1344,13.3372,12.041Q13.4157,11.9475,13.4694,11.838L17.6713,3.2611Z" fill-rule="evenodd" fill="#07B9B9" fill-opacity="1"/></g></svg>